{"title":"Get.On.Up.2014.CAM.XviD-VAiN","uid":10736043,"size":1067145838,"categoryP":"video","categoryS":"movies","magnet":"?xt=urn:btih:e0d51df0c37670f9342e74ec0c4e7efa24ae2967&amp;dn=Get.On.Up.2014.CAM.XviD-VAiN&amp;tr=udp%3A%2F%2Ftracker.openbittorrent.com%3A80&amp;tr=udp%3A%2F%2Fopen.demonii.com%3A1337&amp;tr=udp%3A%2F%2Ftracker.coppersurfer.tk%3A6969&amp;tr=udp%3A%2F%2Fexodus.desync.com%3A6969","seeders":1,"leechers":0,"uploader":"ali1997a","files":4,"time":1407693369,"description":"SilverTorrent - Clean And Verified Torrents Download\n &lt;a href=&quot;\nhttp://i.imgur.com/ky6BGho.png&quot; rel=&quot;nofollow&quot; target=&quot;_NEW&quot;&gt;\nhttp://i.imgur.com/ky6BGho.png&lt;/a&gt;\n &lt;a href=&quot;\nhttp://i.imgur.com/E18uAcL.jpg&quot; rel=&quot;nofollow&quot; target=&quot;_NEW&quot;&gt;\nhttp://i.imgur.com/E18uAcL.jpg&lt;/a&gt;\n\nGet.On.Up.2014.CAM.XviD-VAiN\n\niNFO:\n\niMDB...........- http://www.imdb.com/title/tt2473602/\nGeneral\nFormat: AVI\nFormat/Info: Audio Video Interleave\nFile size: 1 010 MiB\nDuration: 2h 12mn\nOverall bit rate: 1 067 Kbps\nWriting application: VirtualDubMod 1.5.10.2 (build 2540/release)\nWriting library: VirtualDubMod build 2540/release\n\nVideo\nID: 0\nFormat: MPEG-4 Visual\nFormat profile: Advanced Simple@L5\nFormat settings, BVOP: 1\nFormat settings, QPel: No\nFormat settings, GMC: No warppoints\nFormat settings, Matrix: Default (H.263)\nCodec ID: XVID\nCodec ID/Hint: XviD\nDuration: 2h 12mn\nBit rate: 930 Kbps\nWidth: 720 pixels\nHeight: 384 pixels\nDisplay aspect ratio: 1.85:1\nFrame rate: 23.976 fps\nColor space: YUV\nChroma subsampling: 4:2:0\nBit depth: 8 bits\nScan type: Progressive\nCompression mode: Lossy\nBits/(Pixel*Frame): 0.140\nStream size: 880 MiB (87%)\nWriting library: XviD 1.2.1 (UTC 2008-12-04)\n\nAudio\nID: 1\nFormat: MPEG Audio\nFormat version: Version 1\nFormat profile: Layer 3\nMode: Joint stereo\nMode extension: MS Stereo\nCodec ID: 55\nCodec ID/Hint: MP3\nDuration: 2h 12mn\nBit rate mode: Constant\nBit rate: 128 Kbps\nChannel(s): 2 channels\nSampling rate: 48.0 KHz\nCompression mode: Lossy\nStream size: 121 MiB (12%)\nAlignment: Aligned on interleaves\nInterleave, duration: 42 ms (1.00 video frame)\nInterleave, preload duration: 504 ms\n\nSOURCE: video:720pHDScr: audio:720pHDScr\nSAMPLE: Yes\nADDED NOTE: video is pretty nice. audio is pretty nice. cropped chopped resized blah\n\n\nSilverTorrent - Clean And Verified Torrents Download","torrent":{"xt":"urn:btih:e0d51df0c37670f9342e74ec0c4e7efa24ae2967","amp;dn":"Get.On.Up.2014.CAM.XviD-VAiN","amp;tr":["udp%3A%2F%2Ftracker.openbittorrent.com%3A80","udp%3A%2F%2Fopen.demonii.com%3A1337","udp%3A%2F%2Ftracker.coppersurfer.tk%3A6969","udp%3A%2F%2Fexodus.desync.com%3A6969"],"infoHash":"e0d51df0c37670f9342e74ec0c4e7efa24ae2967","infoHashBuffer":{"type":"Buffer","data":[224,213,29,240,195,118,112,249,52,46,116,236,12,78,126,250,36,174,41,103]},"announce":[],"urlList":[]}}